<svg xmlns="http://www.w3.org/2000/svg" width="20" height="31" viewBox="0 0 20 31" fill="none">
  <path d="M0.15512 24.8351C0.611632 19.9238 4.71657 16.1688 9.62903 16.1688H10.371C15.2834 16.1688 19.3884 19.9238 19.8449 24.8351L19.9832 26.3232C20.1915 28.5644 18.4354 30.5 16.1936 30.5H3.80636C1.56465 30.5 -0.191525 28.5644 0.0167956 26.3232L0.15512 24.8351Z" fill="#606060"/>
  <path d="M4.00549 6.51911C4.00549 3.19485 6.68933 0.5 10 0.5C13.3107 0.5 15.9945 3.19485 15.9945 6.51911V8.73775C15.9945 11.0594 14.6648 13.174 12.5772 14.1722C10.9468 14.9518 9.05321 14.9518 7.42276 14.1722C5.33523 13.174 4.00549 11.0594 4.00549 8.73775V6.51911Z" fill="#606060"/>
</svg>