<svg xmlns="http://www.w3.org/2000/svg" width="20" height="20" viewBox="0 0 38 38" fill="none">
  <path fill-rule="evenodd" clip-rule="evenodd" d="M38 19C38 29.4934 29.4922 38 19 38C8.50781 38 0 29.4934 0 19C0 8.50659 8.50781 0 19 0C29.4922 0 38 8.50659 38 19ZM29.2656 9.05908C29.4844 9.28247 29.5781 9.58569 29.5469 9.8772C29.5234 10.095 29.4297 10.3062 29.2656 10.4731L20.7188 19.0173L29.2031 27.5027C29.3984 27.699 29.5 27.9565 29.4922 28.2136C29.4922 28.4683 29.3984 28.7227 29.2031 28.9167C29.0078 29.1089 28.7578 29.2065 28.5078 29.2097C28.25 29.2129 27.9844 29.1152 27.7891 28.9167L19.3047 20.4331L10.875 28.8579C10.6875 29.0461 10.4453 29.1438 10.1953 29.1504C9.92969 29.1577 9.66406 29.0603 9.46094 28.8579C9.07031 28.4675 9.07031 27.8342 9.46094 27.4438L17.8828 19.0173L9.39844 10.532C9.01562 10.1416 9.01562 9.5083 9.39844 9.11792C9.78906 8.72729 10.4297 8.72729 10.8203 9.11792L19.3047 17.6011L27.8438 9.05908C28.2344 8.66846 28.875 8.66846 29.2656 9.05908Z" fill="white"/>
</svg>