<svg width="22" height="26" viewBox="0 0 22 26" fill="none" xmlns="http://www.w3.org/2000/svg">
<rect x="7.11093" y="14.692" width="1.84748" height="11.9236" rx="0.923741" transform="rotate(36.3618 7.11093 14.692)" fill="#606060"/>
<path d="M17.0919 15.1578C14.6721 18.4444 10.0461 19.1472 6.75949 16.7274C3.47282 14.3077 2.77006 9.68172 5.18981 6.39506C7.60957 3.1084 12.2355 2.40563 15.5222 4.82539C18.8089 7.24514 19.5116 11.8711 17.0919 15.1578ZM6.76669 7.55602C4.98811 9.97179 5.50466 13.372 7.92044 15.1506C10.3362 16.9291 13.7364 16.4126 15.515 13.9968C17.2936 11.581 16.777 8.18085 14.3612 6.40227C11.9455 4.62369 8.54527 5.14024 6.76669 7.55602Z" fill="#606060"/>
</svg>
